<?xml version="1.0" encoding="UTF-8"?>
<svg width="700pt" height="700pt" version="1.1" viewBox="0 0 700 700" xmlns="http://www.w3.org/2000/svg" xmlns:xlink="http://www.w3.org/1999/xlink">
 <defs>
  <symbol id="v" overflow="visible">
   <path d="m0.46875-0.03125c-0.023438 0.011719-0.046875 0.023438-0.078125 0.03125s-0.058594 0.015625-0.078125 0.015625c-0.085938 0-0.15234-0.019531-0.20312-0.0625-0.054688-0.050781-0.078125-0.11719-0.078125-0.20312 0-0.082031 0.023438-0.14844 0.078125-0.20312 0.050781-0.050781 0.11719-0.078125 0.20312-0.078125 0.019531 0 0.046875 0.007812 0.078125 0.015625 0.03125 0.011719 0.054687 0.023437 0.078125 0.03125v0.10938c-0.023438-0.019531-0.046875-0.03125-0.078125-0.03125-0.023437-0.007812-0.046875-0.015625-0.078125-0.015625-0.042969 0-0.078125 0.015625-0.10938 0.046875-0.023437 0.023438-0.03125 0.0625-0.03125 0.125 0 0.054688 0.007813 0.09375 0.03125 0.125 0.03125 0.023438 0.066406 0.03125 0.10938 0.03125h0.078125c0.03125-0.007812 0.054687-0.019531 0.078125-0.03125z"/>
  </symbol>
  <symbol id="c" overflow="visible">
   <path d="m0.34375-0.26562c-0.011719-0.007813-0.023438-0.015625-0.03125-0.015625-0.011719-0.007812-0.023438-0.015625-0.03125-0.015625-0.03125 0-0.058594 0.011719-0.078125 0.03125-0.011719 0.023437-0.015625 0.054687-0.015625 0.09375v0.17188h-0.14062v-0.375h0.14062v0.0625c0.007812-0.03125 0.023438-0.050781 0.046875-0.0625 0.019531-0.007812 0.046875-0.015625 0.078125-0.015625h0.03125z"/>
  </symbol>
  <symbol id="a" overflow="visible">
   <path d="m0.4375-0.20312v0.046875h-0.28125c0 0.03125 0.003906 0.054688 0.015625 0.0625 0.019531 0.011719 0.050781 0.015625 0.09375 0.015625h0.0625c0.03125-0.0078125 0.0625-0.023437 0.09375-0.046875v0.10938c-0.03125 0-0.0625 0.0078125-0.09375 0.015625-0.023437 0.0078125-0.046875 0.015625-0.078125 0.015625-0.074219 0-0.13281-0.015625-0.17188-0.046875-0.03125-0.039062-0.046875-0.09375-0.046875-0.15625s0.015625-0.10938 0.046875-0.14062c0.039063-0.039063 0.09375-0.0625 0.15625-0.0625s0.10938 0.023437 0.14062 0.0625c0.039062 0.03125 0.0625 0.074219 0.0625 0.125zm-0.125-0.03125c0-0.019531-0.011719-0.035156-0.03125-0.046875-0.011719-0.019531-0.027344-0.03125-0.046875-0.03125-0.023437 0-0.042969 0.011719-0.0625 0.03125-0.011719 0.011719-0.015625 0.027344-0.015625 0.046875z"/>
  </symbol>
  <symbol id="g" overflow="visible">
   <path d="m0.23438-0.17188c-0.023437 0-0.042969 0.007813-0.0625 0.015625-0.011719 0.011719-0.015625 0.023438-0.015625 0.03125 0 0.023438 0.003906 0.039062 0.015625 0.046875h0.03125c0.03125 0 0.050781-0.0039062 0.0625-0.015625 0.019531-0.019531 0.03125-0.039062 0.03125-0.0625v-0.015625zm0.1875-0.046875v0.21875h-0.125v-0.046875c-0.023437 0.023438-0.042969 0.039062-0.0625 0.046875-0.023437 0.0078125-0.046875 0.015625-0.078125 0.015625s-0.0625-0.011719-0.09375-0.03125c-0.023438-0.019531-0.03125-0.054688-0.03125-0.10938 0-0.039062 0.015625-0.066406 0.046875-0.078125 0.03125-0.019531 0.078125-0.03125 0.14062-0.03125h0.078125v-0.015625c0-0.019531-0.011719-0.035156-0.03125-0.046875-0.011719-0.007813-0.03125-0.015625-0.0625-0.015625s-0.058594 0.007812-0.078125 0.015625c-0.023438 0-0.042969 0.007813-0.0625 0.015625v-0.09375h0.078125c0.03125-0.007812 0.054687-0.015625 0.078125-0.015625 0.070312 0 0.125 0.015625 0.15625 0.046875 0.03125 0.023438 0.046875 0.0625 0.046875 0.125z"/>
  </symbol>
  <symbol id="b" overflow="visible">
   <path d="m0.20312-0.48438v0.10938h0.10938v0.078125h-0.10938v0.17188 0.03125h0.03125 0.078125v0.09375h-0.10938c-0.054687 0-0.089844-0.0078125-0.10938-0.03125-0.023438-0.019531-0.03125-0.050781-0.03125-0.09375v-0.17188h-0.046875v-0.078125h0.046875v-0.10938z"/>
  </symbol>
  <symbol id="l" overflow="visible">
   <path d="m0.3125-0.32812v-0.20312h0.125v0.53125h-0.125v-0.046875c-0.011719 0.023438-0.027344 0.039062-0.046875 0.046875-0.023437 0.0078125-0.042969 0.015625-0.0625 0.015625-0.054687 0-0.09375-0.015625-0.125-0.046875-0.03125-0.039062-0.046875-0.09375-0.046875-0.15625s0.015625-0.10938 0.046875-0.14062c0.03125-0.039063 0.070313-0.0625 0.125-0.0625 0.019531 0 0.039063 0.007813 0.0625 0.015625 0.019531 0.011719 0.035156 0.027344 0.046875 0.046875zm-0.078125 0.25c0.019531 0 0.035156-0.0039062 0.046875-0.015625 0.019531-0.019531 0.03125-0.050781 0.03125-0.09375 0-0.03125-0.011719-0.054688-0.03125-0.078125-0.011719-0.03125-0.027344-0.046875-0.046875-0.046875-0.023437 0-0.042969 0.015625-0.0625 0.046875-0.011719 0.023437-0.015625 0.046875-0.015625 0.078125 0 0.042969 0.003906 0.074219 0.015625 0.09375 0.019531 0.011719 0.039063 0.015625 0.0625 0.015625z"/>
  </symbol>
  <symbol id="k" overflow="visible">
   <path d="m0.26562-0.078125c0.03125 0 0.050781-0.0039062 0.0625-0.015625 0.007813-0.019531 0.015625-0.050781 0.015625-0.09375 0-0.03125-0.007812-0.054688-0.015625-0.078125-0.011719-0.03125-0.03125-0.046875-0.0625-0.046875s-0.054687 0.015625-0.0625 0.046875c-0.011719 0.023437-0.015625 0.046875-0.015625 0.078125s0.003906 0.058594 0.015625 0.078125c0.007813 0.023438 0.03125 0.03125 0.0625 0.03125zm-0.078125-0.25c0.007812-0.019531 0.023438-0.035156 0.046875-0.046875 0.019531-0.007812 0.046875-0.015625 0.078125-0.015625 0.039062 0 0.078125 0.023437 0.10938 0.0625 0.03125 0.03125 0.046875 0.078125 0.046875 0.14062s-0.015625 0.11719-0.046875 0.15625c-0.03125 0.03125-0.070313 0.046875-0.10938 0.046875-0.03125 0-0.058594-0.0078125-0.078125-0.015625-0.023437-0.0078125-0.039063-0.023438-0.046875-0.046875v0.046875h-0.14062v-0.53125h0.14062z"/>
  </symbol>
  <symbol id="j" overflow="visible">
   <path d="m0.015625-0.375h0.10938l0.10938 0.25 0.078125-0.25h0.14062l-0.17188 0.40625c-0.011719 0.039062-0.027344 0.070312-0.046875 0.09375-0.023437 0.019531-0.054687 0.03125-0.09375 0.03125h-0.078125v-0.09375h0.046875c0.019531 0 0.03125-0.0078125 0.03125-0.015625 0.007813 0 0.019531-0.011719 0.03125-0.03125z"/>
  </symbol>
  <symbol id="f" overflow="visible">
   <path d="m0.0625-0.51562h0.14062l0.1875 0.35938v-0.35938h0.14062v0.51562h-0.15625l-0.1875-0.34375v0.34375h-0.125z"/>
  </symbol>
  <symbol id="i" overflow="visible">
   <path d="m0.35938-0.375v0.10938c-0.03125-0.019531-0.0625-0.03125-0.09375-0.03125-0.023437-0.007813-0.042969-0.015625-0.0625-0.015625-0.023437 0-0.039063 0.007812-0.046875 0.015625-0.011719 0-0.015625 0.011719-0.015625 0.03125 0 0 0.003906 0.007813 0.015625 0.015625 0.007812 0.011719 0.023438 0.015625 0.046875 0.015625h0.03125c0.050781 0 0.085937 0.011719 0.10938 0.03125 0.019531 0.023437 0.03125 0.054687 0.03125 0.09375 0 0.042969-0.015625 0.074219-0.046875 0.09375-0.023437 0.019531-0.0625 0.03125-0.125 0.03125-0.03125 0-0.058594-0.0078125-0.078125-0.015625-0.023438 0-0.046875-0.0039062-0.078125-0.015625v-0.09375c0.019531 0.011719 0.039062 0.023438 0.0625 0.03125h0.09375 0.046875c0.007812-0.0078125 0.015625-0.019531 0.015625-0.03125 0-0.007813-0.007813-0.015625-0.015625-0.015625-0.011719-0.007812-0.027344-0.019531-0.046875-0.03125h-0.015625c-0.0625 0-0.10547-0.007812-0.125-0.03125-0.023438-0.019531-0.03125-0.046875-0.03125-0.078125 0-0.039063 0.015625-0.070313 0.046875-0.09375 0.03125-0.019531 0.070313-0.03125 0.125-0.03125 0.019531 0 0.039063 0.007813 0.0625 0.015625h0.09375z"/>
  </symbol>
  <symbol id="e" overflow="visible">
   <path d="m0.45312-0.23438v0.23438h-0.14062v-0.17188-0.078125-0.015625c0-0.007813-0.007812-0.015625-0.015625-0.015625-0.011719-0.007812-0.023437-0.015625-0.03125-0.015625-0.023437 0-0.042969 0.011719-0.0625 0.03125-0.011719 0.023437-0.015625 0.046875-0.015625 0.078125v0.1875h-0.14062v-0.375h0.14062v0.046875c0.007812-0.019531 0.023438-0.035156 0.046875-0.046875 0.019531-0.007812 0.046875-0.015625 0.078125-0.015625 0.039062 0 0.070312 0.015625 0.09375 0.046875 0.03125 0.023438 0.046875 0.058594 0.046875 0.10938z"/>
  </symbol>
  <symbol id="u" overflow="visible">
   <path d="m0.046875-0.53125h0.14062v0.29688l0.125-0.14062h0.14062l-0.1875 0.17188 0.21875 0.20312h-0.15625l-0.14062-0.15625v0.15625h-0.14062z"/>
  </symbol>
  <symbol id="d" overflow="visible">
   <path d="m0.23438-0.3125c-0.023437 0-0.042969 0.011719-0.0625 0.03125-0.011719 0.023438-0.015625 0.054688-0.015625 0.09375 0 0.042969 0.003906 0.074219 0.015625 0.09375 0.019531 0.011719 0.039063 0.015625 0.0625 0.015625 0.03125 0 0.050781-0.0039062 0.0625-0.015625 0.019531-0.019531 0.03125-0.050781 0.03125-0.09375 0-0.039062-0.011719-0.070312-0.03125-0.09375-0.011719-0.019531-0.03125-0.03125-0.0625-0.03125zm0-0.078125c0.070313 0 0.125 0.023437 0.15625 0.0625 0.039063 0.03125 0.0625 0.078125 0.0625 0.14062s-0.023437 0.11719-0.0625 0.15625c-0.03125 0.03125-0.085937 0.046875-0.15625 0.046875-0.0625 0-0.11719-0.015625-0.15625-0.046875-0.03125-0.039062-0.046875-0.09375-0.046875-0.15625s0.015625-0.10938 0.046875-0.14062c0.039063-0.039063 0.09375-0.0625 0.15625-0.0625z"/>
  </symbol>
  <symbol id="t" overflow="visible">
   <path d="m0.25-0.28125c0.03125 0 0.050781-0.003906 0.0625-0.015625 0.007812-0.007813 0.015625-0.023437 0.015625-0.046875 0-0.019531-0.007813-0.035156-0.015625-0.046875-0.011719-0.019531-0.03125-0.03125-0.0625-0.03125h-0.046875v0.14062zm-0.046875 0.078125v0.20312h-0.14062v-0.51562h0.20312c0.0625 0 0.10938 0.015625 0.14062 0.046875 0.03125 0.023438 0.046875 0.054688 0.046875 0.09375 0 0.042969-0.007813 0.074219-0.015625 0.09375-0.011719 0.023438-0.039062 0.039062-0.078125 0.046875 0.019531 0 0.035156 0.011719 0.046875 0.03125 0.007812 0.011719 0.023438 0.03125 0.046875 0.0625l0.078125 0.14062h-0.15625l-0.046875-0.125c-0.011719-0.019531-0.027344-0.035156-0.046875-0.046875-0.011719-0.019531-0.027344-0.03125-0.046875-0.03125z"/>
  </symbol>
  <symbol id="h" overflow="visible">
   <path d="m0.046875-0.15625v-0.21875h0.125v0.03125 0.078125 0.0625 0.0625c0.007813 0.011719 0.015625 0.023437 0.015625 0.03125 0.007812 0.011719 0.015625 0.015625 0.015625 0.015625h0.03125c0.019531 0 0.035156-0.0039062 0.046875-0.015625 0.019531-0.019531 0.03125-0.050781 0.03125-0.09375v-0.17188h0.125v0.375h-0.125v-0.046875c-0.023438 0.023438-0.042969 0.039062-0.0625 0.046875-0.011719 0.0078125-0.03125 0.015625-0.0625 0.015625-0.042969 0-0.078125-0.015625-0.10938-0.046875-0.023438-0.03125-0.03125-0.070312-0.03125-0.125z"/>
  </symbol>
  <symbol id="s" overflow="visible">
   <path d="m0.046875-0.53125h0.14062v0.53125h-0.14062z"/>
  </symbol>
  <symbol id="r" overflow="visible">
   <path d="m0.3125-0.53125v0.078125h-0.078125c-0.011719 0-0.023437 0.007813-0.03125 0.015625v0.03125 0.03125h0.10938v0.078125h-0.10938v0.29688h-0.125v-0.29688h-0.0625v-0.078125h0.0625v-0.03125c0-0.039062 0.0078125-0.070312 0.03125-0.09375 0.019531-0.019531 0.054687-0.03125 0.10938-0.03125z"/>
  </symbol>
  <symbol id="q" overflow="visible">
   <path d="m0.42188-0.3125c0.007813-0.019531 0.023437-0.035156 0.046875-0.046875 0.019531-0.019531 0.039062-0.03125 0.0625-0.03125 0.039062 0 0.070312 0.015625 0.09375 0.046875 0.03125 0.023438 0.046875 0.058594 0.046875 0.10938v0.23438h-0.125v-0.20312-0.015625c0-0.03125-0.007813-0.050781-0.015625-0.0625 0-0.007812-0.011719-0.015625-0.03125-0.015625-0.023438 0-0.042969 0.011719-0.0625 0.03125-0.011719 0.023437-0.015625 0.046875-0.015625 0.078125v0.1875h-0.10938v-0.20312c0-0.039063-0.007812-0.066406-0.015625-0.078125-0.011719-0.007812-0.027344-0.015625-0.046875-0.015625-0.023438 0-0.039062 0.011719-0.046875 0.03125-0.011719 0.023437-0.015625 0.046875-0.015625 0.078125v0.1875h-0.14062v-0.375h0.14062v0.046875c0.007812-0.019531 0.023438-0.035156 0.046875-0.046875 0.019531-0.007812 0.039063-0.015625 0.0625-0.015625 0.03125 0 0.050781 0.011719 0.0625 0.03125 0.019531 0.011719 0.039063 0.027344 0.0625 0.046875z"/>
  </symbol>
  <symbol id="p" overflow="visible">
   <path d="m0.45312-0.23438v0.23438h-0.14062v-0.17188-0.078125-0.015625c0-0.007813-0.007812-0.015625-0.015625-0.015625-0.011719-0.007812-0.023437-0.015625-0.03125-0.015625-0.023437 0-0.042969 0.011719-0.0625 0.03125-0.011719 0.023437-0.015625 0.046875-0.015625 0.078125v0.1875h-0.14062v-0.53125h0.14062v0.20312c0.007812-0.019531 0.023438-0.035156 0.046875-0.046875 0.019531-0.007812 0.046875-0.015625 0.078125-0.015625 0.039062 0 0.070312 0.015625 0.09375 0.046875 0.03125 0.023438 0.046875 0.058594 0.046875 0.10938z"/>
  </symbol>
  <symbol id="o" overflow="visible">
   <path d="m0.0625-0.51562h0.21875c0.0625 0 0.10938 0.015625 0.14062 0.046875 0.039063 0.03125 0.0625 0.074219 0.0625 0.125 0 0.054688-0.023437 0.09375-0.0625 0.125-0.03125 0.03125-0.078125 0.046875-0.14062 0.046875h-0.078125v0.17188h-0.14062zm0.14062 0.09375v0.15625h0.0625c0.03125 0 0.050781-0.003906 0.0625-0.015625 0.007813-0.019531 0.015625-0.039062 0.015625-0.0625 0-0.019531-0.007812-0.035156-0.015625-0.046875-0.011719-0.019531-0.03125-0.03125-0.0625-0.03125z"/>
  </symbol>
  <symbol id="n" overflow="visible">
   <path d="m0.046875-0.375h0.14062v0.35938c0 0.050781-0.015625 0.09375-0.046875 0.125-0.023437 0.03125-0.058594 0.046875-0.10938 0.046875h-0.046875v-0.09375h0.015625c0.019531 0 0.03125-0.0078125 0.03125-0.015625 0.0078125 0 0.015625-0.023438 0.015625-0.0625zm0-0.15625h0.14062v0.09375h-0.14062z"/>
  </symbol>
  <symbol id="m" overflow="visible">
   <path d="m0.375-0.375v0.10938c-0.023438-0.007813-0.042969-0.019531-0.0625-0.03125-0.011719-0.007813-0.027344-0.015625-0.046875-0.015625-0.03125 0-0.058594 0.015625-0.078125 0.046875-0.023438 0.023437-0.03125 0.046875-0.03125 0.078125s0.007812 0.058594 0.03125 0.078125c0.019531 0.023438 0.046875 0.03125 0.078125 0.03125h0.046875c0.019531-0.0078125 0.039062-0.019531 0.0625-0.03125v0.09375c-0.023438 0.011719-0.042969 0.015625-0.0625 0.015625-0.023438 0.0078125-0.042969 0.015625-0.0625 0.015625-0.074219 0-0.13281-0.015625-0.17188-0.046875-0.03125-0.039062-0.046875-0.09375-0.046875-0.15625s0.015625-0.10938 0.046875-0.14062c0.039063-0.039063 0.097656-0.0625 0.17188-0.0625 0.019531 0 0.039062 0.007813 0.0625 0.015625h0.0625z"/>
  </symbol>
 </defs>
 <g>
  <path d="m540.43 391.37c-2.3242-5.5039-5.6562-10.445-9.8984-14.688-4.2422-4.2422-9.1836-7.5742-14.688-9.8984-2.8438-1.2031-5.7539-2.1016-8.75-2.7148v-10.148c0-8.7227-1.707-17.207-5.082-25.188-3.2617-7.6992-7.9258-14.617-13.859-20.551-5.9375-5.9375-12.852-10.598-20.551-13.859-7.9805-3.375-16.449-5.082-25.188-5.082h-83.16v-55.441h120.13c15.289 0 27.719-12.434 27.719-27.719l0.003906-73.922c0-15.289-12.434-27.719-27.719-27.719h-258.72c-15.289 0-27.719 12.434-27.719 27.719v73.922c0 15.289 12.434 27.719 27.719 27.719h120.11v55.441h-83.16c-8.7227 0-17.207 1.707-25.188 5.082-7.6992 3.2617-14.617 7.9258-20.551 13.859-5.9375 5.9375-10.598 12.852-13.859 20.551-3.375 7.9805-5.082 16.449-5.082 25.188v10.164c-2.9805 0.60156-5.9062 1.5117-8.75 2.7148-5.5039 2.3242-10.445 5.6562-14.688 9.8984-4.2422 4.2422-7.5742 9.1836-9.8984 14.688-2.4062 5.6992-3.6406 11.746-3.6406 17.988s1.2188 12.277 3.6406 17.988c2.3242 5.5039 5.6562 10.445 9.8984 14.688 4.2422 4.2422 9.1836 7.5742 14.688 9.8984 5.6992 2.4062 11.762 3.6406 17.988 3.6406 6.2305 0 12.277-1.2188 17.988-3.6406 5.5039-2.3242 10.445-5.6562 14.688-9.8984 4.2422-4.2422 7.5742-9.1836 9.8984-14.688 2.4062-5.6992 3.6406-11.746 3.6406-17.988s-1.2188-12.277-3.6406-17.988c-2.3242-5.5039-5.6562-10.445-9.8984-14.688-4.2422-4.2422-9.1836-7.5742-14.688-9.8984-2.8438-1.2031-5.7539-2.1016-8.75-2.7148v-10.164c0-25.48 20.719-46.199 46.199-46.199h83.16v56.363c-2.9805 0.60156-5.9062 1.5117-8.75 2.7148-5.5039 2.3242-10.445 5.6562-14.688 9.8984-4.2422 4.2422-7.5742 9.1836-9.8984 14.688-2.4062 5.6992-3.6406 11.746-3.6406 17.988s1.2188 12.277 3.6406 17.988c2.3242 5.5039 5.6562 10.445 9.8984 14.688 4.2422 4.2422 9.1836 7.5742 14.688 9.8984 5.6992 2.4062 11.762 3.6406 17.988 3.6406 6.2305 0 12.277-1.2188 17.988-3.6406 5.5039-2.3242 10.445-5.6562 14.688-9.8984 4.2422-4.2422 7.5742-9.1836 9.8984-14.688 2.4062-5.6992 3.6406-11.746 3.6406-17.988s-1.2188-12.277-3.6406-17.988c-2.3242-5.5039-5.6562-10.445-9.8984-14.688-4.2422-4.2422-9.1836-7.5742-14.688-9.8984-2.8438-1.2031-5.7539-2.1016-8.75-2.7148l0.003906-56.367h83.16c25.48 0 46.199 20.719 46.199 46.199v10.164c-2.9805 0.60156-5.9062 1.5117-8.75 2.7148-5.5039 2.3242-10.445 5.6562-14.688 9.8984-4.2422 4.2422-7.5742 9.1836-9.8984 14.688-2.4062 5.6992-3.6406 11.746-3.6406 17.988 0 6.2422 1.2188 12.277 3.6406 17.988 2.3242 5.5039 5.6562 10.445 9.8984 14.688 4.2422 4.2422 9.1836 7.5742 14.688 9.8984 5.6992 2.4062 11.746 3.6406 17.988 3.6406 6.2422 0 12.277-1.2188 17.988-3.6406 5.5039-2.3242 10.445-5.6562 14.688-9.8984 4.2422-4.2422 7.5742-9.1836 9.8984-14.688 2.4062-5.6992 3.6406-11.746 3.6406-17.988 0-6.2422-1.2305-12.289-3.6367-18zm-329-185.29v-73.918c0-5.0977 4.1445-9.2383 9.2383-9.2383h258.72c5.0977 0 9.2383 4.1445 9.2383 9.2383v73.922c0 5.0977-4.1445 9.2383-9.2383 9.2383h-258.72c-5.0977 0-9.2383-4.1445-9.2383-9.2422zm18.465 203.28c0 15.289-12.434 27.719-27.719 27.719-15.289 0-27.719-12.434-27.719-27.719 0-15.289 12.434-27.719 27.719-27.719 15.285 0 27.719 12.43 27.719 27.719zm147.84 0c0 15.289-12.434 27.719-27.719 27.719-15.289 0-27.719-12.434-27.719-27.719 0-15.289 12.434-27.719 27.719-27.719s27.719 12.43 27.719 27.719zm120.12 27.719c-15.289 0-27.719-12.434-27.719-27.719 0-15.289 12.434-27.719 27.719-27.719 15.289 0 27.719 12.434 27.719 27.719 0 15.289-12.434 27.719-27.719 27.719z"/>
  <use x="70" y="562.101562" xlink:href="#v"/>
  <use x="70.515625" y="562.101562" xlink:href="#c"/>
  <use x="70.859375" y="562.101562" xlink:href="#a"/>
  <use x="71.332031" y="562.101562" xlink:href="#g"/>
  <use x="71.804688" y="562.101562" xlink:href="#b"/>
  <use x="72.140625" y="562.101562" xlink:href="#a"/>
  <use x="72.617188" y="562.101562" xlink:href="#l"/>
  <use x="73.359375" y="562.101562" xlink:href="#k"/>
  <use x="73.859375" y="562.101562" xlink:href="#j"/>
  <use x="74.5625" y="562.101562" xlink:href="#f"/>
  <use x="75.148438" y="562.101562" xlink:href="#a"/>
  <use x="75.621094" y="562.101562" xlink:href="#i"/>
  <use x="76.039062" y="562.101562" xlink:href="#b"/>
  <use x="76.375" y="562.101562" xlink:href="#a"/>
  <use x="76.847656" y="562.101562" xlink:href="#c"/>
  <use x="77.191406" y="562.101562" xlink:href="#a"/>
  <use x="77.667969" y="562.101562" xlink:href="#e"/>
  <use x="78.167969" y="562.101562" xlink:href="#u"/>
  <use x="78.632813" y="562.101562" xlink:href="#d"/>
  <use x="79.355469" y="562.101562" xlink:href="#t"/>
  <use x="79.894531" y="562.101562" xlink:href="#h"/>
  <use x="80.394531" y="562.101562" xlink:href="#i"/>
  <use x="80.808594" y="562.101562" xlink:href="#s"/>
  <use x="81.050781" y="562.101562" xlink:href="#g"/>
  <use x="81.523438" y="562.101562" xlink:href="#e"/>
  <use x="70" y="562.800781" xlink:href="#r"/>
  <use x="70.304688" y="562.800781" xlink:href="#c"/>
  <use x="70.648438" y="562.800781" xlink:href="#d"/>
  <use x="71.128906" y="562.800781" xlink:href="#q"/>
  <use x="72.105469" y="562.800781" xlink:href="#b"/>
  <use x="72.4375" y="562.800781" xlink:href="#p"/>
  <use x="72.9375" y="562.800781" xlink:href="#a"/>
  <use x="73.65625" y="562.800781" xlink:href="#f"/>
  <use x="74.242188" y="562.800781" xlink:href="#d"/>
  <use x="74.722656" y="562.800781" xlink:href="#h"/>
  <use x="75.21875" y="562.800781" xlink:href="#e"/>
  <use x="75.960938" y="562.800781" xlink:href="#o"/>
  <use x="76.476562" y="562.800781" xlink:href="#c"/>
  <use x="76.820312" y="562.800781" xlink:href="#d"/>
  <use x="77.300781" y="562.800781" xlink:href="#n"/>
  <use x="77.542969" y="562.800781" xlink:href="#a"/>
  <use x="78.015625" y="562.800781" xlink:href="#m"/>
  <use x="78.429688" y="562.800781" xlink:href="#b"/>
 </g>
</svg>
