<?xml version="1.0" encoding="UTF-8"?>
<svg width="700pt" height="700pt" version="1.1" viewBox="0 0 700 700" xmlns="http://www.w3.org/2000/svg" xmlns:xlink="http://www.w3.org/1999/xlink">
 <defs>
  <symbol id="v" overflow="visible">
   <path d="m0.46875-0.03125c-0.023438 0.011719-0.046875 0.023438-0.078125 0.03125s-0.058594 0.015625-0.078125 0.015625c-0.085938 0-0.15234-0.019531-0.20312-0.0625-0.054688-0.050781-0.078125-0.11719-0.078125-0.20312 0-0.082031 0.023438-0.14844 0.078125-0.20312 0.050781-0.050781 0.11719-0.078125 0.20312-0.078125 0.019531 0 0.046875 0.007812 0.078125 0.015625 0.03125 0.011719 0.054687 0.023437 0.078125 0.03125v0.10938c-0.023438-0.019531-0.046875-0.03125-0.078125-0.03125-0.023437-0.007812-0.046875-0.015625-0.078125-0.015625-0.042969 0-0.078125 0.015625-0.10938 0.046875-0.023437 0.023438-0.03125 0.0625-0.03125 0.125 0 0.054688 0.007813 0.09375 0.03125 0.125 0.03125 0.023438 0.066406 0.03125 0.10938 0.03125h0.078125c0.03125-0.007812 0.054687-0.019531 0.078125-0.03125z"/>
  </symbol>
  <symbol id="c" overflow="visible">
   <path d="m0.34375-0.26562c-0.011719-0.007813-0.023438-0.015625-0.03125-0.015625-0.011719-0.007812-0.023438-0.015625-0.03125-0.015625-0.03125 0-0.058594 0.011719-0.078125 0.03125-0.011719 0.023437-0.015625 0.054687-0.015625 0.09375v0.17188h-0.14062v-0.375h0.14062v0.0625c0.007812-0.03125 0.023438-0.050781 0.046875-0.0625 0.019531-0.007812 0.046875-0.015625 0.078125-0.015625h0.03125z"/>
  </symbol>
  <symbol id="a" overflow="visible">
   <path d="m0.4375-0.20312v0.046875h-0.28125c0 0.03125 0.003906 0.054688 0.015625 0.0625 0.019531 0.011719 0.050781 0.015625 0.09375 0.015625h0.0625c0.03125-0.0078125 0.0625-0.023437 0.09375-0.046875v0.10938c-0.03125 0-0.0625 0.0078125-0.09375 0.015625-0.023437 0.0078125-0.046875 0.015625-0.078125 0.015625-0.074219 0-0.13281-0.015625-0.17188-0.046875-0.03125-0.039062-0.046875-0.09375-0.046875-0.15625s0.015625-0.10938 0.046875-0.14062c0.039063-0.039063 0.09375-0.0625 0.15625-0.0625s0.10938 0.023437 0.14062 0.0625c0.039062 0.03125 0.0625 0.074219 0.0625 0.125zm-0.125-0.03125c0-0.019531-0.011719-0.035156-0.03125-0.046875-0.011719-0.019531-0.027344-0.03125-0.046875-0.03125-0.023437 0-0.042969 0.011719-0.0625 0.03125-0.011719 0.011719-0.015625 0.027344-0.015625 0.046875z"/>
  </symbol>
  <symbol id="g" overflow="visible">
   <path d="m0.23438-0.17188c-0.023437 0-0.042969 0.007813-0.0625 0.015625-0.011719 0.011719-0.015625 0.023438-0.015625 0.03125 0 0.023438 0.003906 0.039062 0.015625 0.046875h0.03125c0.03125 0 0.050781-0.0039062 0.0625-0.015625 0.019531-0.019531 0.03125-0.039062 0.03125-0.0625v-0.015625zm0.1875-0.046875v0.21875h-0.125v-0.046875c-0.023437 0.023438-0.042969 0.039062-0.0625 0.046875-0.023437 0.0078125-0.046875 0.015625-0.078125 0.015625s-0.0625-0.011719-0.09375-0.03125c-0.023438-0.019531-0.03125-0.054688-0.03125-0.10938 0-0.039062 0.015625-0.066406 0.046875-0.078125 0.03125-0.019531 0.078125-0.03125 0.14062-0.03125h0.078125v-0.015625c0-0.019531-0.011719-0.035156-0.03125-0.046875-0.011719-0.007813-0.03125-0.015625-0.0625-0.015625s-0.058594 0.007812-0.078125 0.015625c-0.023438 0-0.042969 0.007813-0.0625 0.015625v-0.09375h0.078125c0.03125-0.007812 0.054687-0.015625 0.078125-0.015625 0.070312 0 0.125 0.015625 0.15625 0.046875 0.03125 0.023438 0.046875 0.0625 0.046875 0.125z"/>
  </symbol>
  <symbol id="b" overflow="visible">
   <path d="m0.20312-0.48438v0.10938h0.10938v0.078125h-0.10938v0.17188 0.03125h0.03125 0.078125v0.09375h-0.10938c-0.054687 0-0.089844-0.0078125-0.10938-0.03125-0.023438-0.019531-0.03125-0.050781-0.03125-0.09375v-0.17188h-0.046875v-0.078125h0.046875v-0.10938z"/>
  </symbol>
  <symbol id="l" overflow="visible">
   <path d="m0.3125-0.32812v-0.20312h0.125v0.53125h-0.125v-0.046875c-0.011719 0.023438-0.027344 0.039062-0.046875 0.046875-0.023437 0.0078125-0.042969 0.015625-0.0625 0.015625-0.054687 0-0.09375-0.015625-0.125-0.046875-0.03125-0.039062-0.046875-0.09375-0.046875-0.15625s0.015625-0.10938 0.046875-0.14062c0.03125-0.039063 0.070313-0.0625 0.125-0.0625 0.019531 0 0.039063 0.007813 0.0625 0.015625 0.019531 0.011719 0.035156 0.027344 0.046875 0.046875zm-0.078125 0.25c0.019531 0 0.035156-0.0039062 0.046875-0.015625 0.019531-0.019531 0.03125-0.050781 0.03125-0.09375 0-0.03125-0.011719-0.054688-0.03125-0.078125-0.011719-0.03125-0.027344-0.046875-0.046875-0.046875-0.023437 0-0.042969 0.015625-0.0625 0.046875-0.011719 0.023437-0.015625 0.046875-0.015625 0.078125 0 0.042969 0.003906 0.074219 0.015625 0.09375 0.019531 0.011719 0.039063 0.015625 0.0625 0.015625z"/>
  </symbol>
  <symbol id="k" overflow="visible">
   <path d="m0.26562-0.078125c0.03125 0 0.050781-0.0039062 0.0625-0.015625 0.007813-0.019531 0.015625-0.050781 0.015625-0.09375 0-0.03125-0.007812-0.054688-0.015625-0.078125-0.011719-0.03125-0.03125-0.046875-0.0625-0.046875s-0.054687 0.015625-0.0625 0.046875c-0.011719 0.023437-0.015625 0.046875-0.015625 0.078125s0.003906 0.058594 0.015625 0.078125c0.007813 0.023438 0.03125 0.03125 0.0625 0.03125zm-0.078125-0.25c0.007812-0.019531 0.023438-0.035156 0.046875-0.046875 0.019531-0.007812 0.046875-0.015625 0.078125-0.015625 0.039062 0 0.078125 0.023437 0.10938 0.0625 0.03125 0.03125 0.046875 0.078125 0.046875 0.14062s-0.015625 0.11719-0.046875 0.15625c-0.03125 0.03125-0.070313 0.046875-0.10938 0.046875-0.03125 0-0.058594-0.0078125-0.078125-0.015625-0.023437-0.0078125-0.039063-0.023438-0.046875-0.046875v0.046875h-0.14062v-0.53125h0.14062z"/>
  </symbol>
  <symbol id="j" overflow="visible">
   <path d="m0.015625-0.375h0.10938l0.10938 0.25 0.078125-0.25h0.14062l-0.17188 0.40625c-0.011719 0.039062-0.027344 0.070312-0.046875 0.09375-0.023437 0.019531-0.054687 0.03125-0.09375 0.03125h-0.078125v-0.09375h0.046875c0.019531 0 0.03125-0.0078125 0.03125-0.015625 0.007813 0 0.019531-0.011719 0.03125-0.03125z"/>
  </symbol>
  <symbol id="f" overflow="visible">
   <path d="m0.0625-0.51562h0.14062l0.1875 0.35938v-0.35938h0.14062v0.51562h-0.15625l-0.1875-0.34375v0.34375h-0.125z"/>
  </symbol>
  <symbol id="i" overflow="visible">
   <path d="m0.35938-0.375v0.10938c-0.03125-0.019531-0.0625-0.03125-0.09375-0.03125-0.023437-0.007813-0.042969-0.015625-0.0625-0.015625-0.023437 0-0.039063 0.007812-0.046875 0.015625-0.011719 0-0.015625 0.011719-0.015625 0.03125 0 0 0.003906 0.007813 0.015625 0.015625 0.007812 0.011719 0.023438 0.015625 0.046875 0.015625h0.03125c0.050781 0 0.085937 0.011719 0.10938 0.03125 0.019531 0.023437 0.03125 0.054687 0.03125 0.09375 0 0.042969-0.015625 0.074219-0.046875 0.09375-0.023437 0.019531-0.0625 0.03125-0.125 0.03125-0.03125 0-0.058594-0.0078125-0.078125-0.015625-0.023438 0-0.046875-0.0039062-0.078125-0.015625v-0.09375c0.019531 0.011719 0.039062 0.023438 0.0625 0.03125h0.09375 0.046875c0.007812-0.0078125 0.015625-0.019531 0.015625-0.03125 0-0.007813-0.007813-0.015625-0.015625-0.015625-0.011719-0.007812-0.027344-0.019531-0.046875-0.03125h-0.015625c-0.0625 0-0.10547-0.007812-0.125-0.03125-0.023438-0.019531-0.03125-0.046875-0.03125-0.078125 0-0.039063 0.015625-0.070313 0.046875-0.09375 0.03125-0.019531 0.070313-0.03125 0.125-0.03125 0.019531 0 0.039063 0.007813 0.0625 0.015625h0.09375z"/>
  </symbol>
  <symbol id="e" overflow="visible">
   <path d="m0.45312-0.23438v0.23438h-0.14062v-0.17188-0.078125-0.015625c0-0.007813-0.007812-0.015625-0.015625-0.015625-0.011719-0.007812-0.023437-0.015625-0.03125-0.015625-0.023437 0-0.042969 0.011719-0.0625 0.03125-0.011719 0.023437-0.015625 0.046875-0.015625 0.078125v0.1875h-0.14062v-0.375h0.14062v0.046875c0.007812-0.019531 0.023438-0.035156 0.046875-0.046875 0.019531-0.007812 0.046875-0.015625 0.078125-0.015625 0.039062 0 0.070312 0.015625 0.09375 0.046875 0.03125 0.023438 0.046875 0.058594 0.046875 0.10938z"/>
  </symbol>
  <symbol id="u" overflow="visible">
   <path d="m0.046875-0.53125h0.14062v0.29688l0.125-0.14062h0.14062l-0.1875 0.17188 0.21875 0.20312h-0.15625l-0.14062-0.15625v0.15625h-0.14062z"/>
  </symbol>
  <symbol id="d" overflow="visible">
   <path d="m0.23438-0.3125c-0.023437 0-0.042969 0.011719-0.0625 0.03125-0.011719 0.023438-0.015625 0.054688-0.015625 0.09375 0 0.042969 0.003906 0.074219 0.015625 0.09375 0.019531 0.011719 0.039063 0.015625 0.0625 0.015625 0.03125 0 0.050781-0.0039062 0.0625-0.015625 0.019531-0.019531 0.03125-0.050781 0.03125-0.09375 0-0.039062-0.011719-0.070312-0.03125-0.09375-0.011719-0.019531-0.03125-0.03125-0.0625-0.03125zm0-0.078125c0.070313 0 0.125 0.023437 0.15625 0.0625 0.039063 0.03125 0.0625 0.078125 0.0625 0.14062s-0.023437 0.11719-0.0625 0.15625c-0.03125 0.03125-0.085937 0.046875-0.15625 0.046875-0.0625 0-0.11719-0.015625-0.15625-0.046875-0.03125-0.039062-0.046875-0.09375-0.046875-0.15625s0.015625-0.10938 0.046875-0.14062c0.039063-0.039063 0.09375-0.0625 0.15625-0.0625z"/>
  </symbol>
  <symbol id="t" overflow="visible">
   <path d="m0.25-0.28125c0.03125 0 0.050781-0.003906 0.0625-0.015625 0.007812-0.007813 0.015625-0.023437 0.015625-0.046875 0-0.019531-0.007813-0.035156-0.015625-0.046875-0.011719-0.019531-0.03125-0.03125-0.0625-0.03125h-0.046875v0.14062zm-0.046875 0.078125v0.20312h-0.14062v-0.51562h0.20312c0.0625 0 0.10938 0.015625 0.14062 0.046875 0.03125 0.023438 0.046875 0.054688 0.046875 0.09375 0 0.042969-0.007813 0.074219-0.015625 0.09375-0.011719 0.023438-0.039062 0.039062-0.078125 0.046875 0.019531 0 0.035156 0.011719 0.046875 0.03125 0.007812 0.011719 0.023438 0.03125 0.046875 0.0625l0.078125 0.14062h-0.15625l-0.046875-0.125c-0.011719-0.019531-0.027344-0.035156-0.046875-0.046875-0.011719-0.019531-0.027344-0.03125-0.046875-0.03125z"/>
  </symbol>
  <symbol id="h" overflow="visible">
   <path d="m0.046875-0.15625v-0.21875h0.125v0.03125 0.078125 0.0625 0.0625c0.007813 0.011719 0.015625 0.023437 0.015625 0.03125 0.007812 0.011719 0.015625 0.015625 0.015625 0.015625h0.03125c0.019531 0 0.035156-0.0039062 0.046875-0.015625 0.019531-0.019531 0.03125-0.050781 0.03125-0.09375v-0.17188h0.125v0.375h-0.125v-0.046875c-0.023438 0.023438-0.042969 0.039062-0.0625 0.046875-0.011719 0.0078125-0.03125 0.015625-0.0625 0.015625-0.042969 0-0.078125-0.015625-0.10938-0.046875-0.023438-0.03125-0.03125-0.070312-0.03125-0.125z"/>
  </symbol>
  <symbol id="s" overflow="visible">
   <path d="m0.046875-0.53125h0.14062v0.53125h-0.14062z"/>
  </symbol>
  <symbol id="r" overflow="visible">
   <path d="m0.3125-0.53125v0.078125h-0.078125c-0.011719 0-0.023437 0.007813-0.03125 0.015625v0.03125 0.03125h0.10938v0.078125h-0.10938v0.29688h-0.125v-0.29688h-0.0625v-0.078125h0.0625v-0.03125c0-0.039062 0.0078125-0.070312 0.03125-0.09375 0.019531-0.019531 0.054687-0.03125 0.10938-0.03125z"/>
  </symbol>
  <symbol id="q" overflow="visible">
   <path d="m0.42188-0.3125c0.007813-0.019531 0.023437-0.035156 0.046875-0.046875 0.019531-0.019531 0.039062-0.03125 0.0625-0.03125 0.039062 0 0.070312 0.015625 0.09375 0.046875 0.03125 0.023438 0.046875 0.058594 0.046875 0.10938v0.23438h-0.125v-0.20312-0.015625c0-0.03125-0.007813-0.050781-0.015625-0.0625 0-0.007812-0.011719-0.015625-0.03125-0.015625-0.023438 0-0.042969 0.011719-0.0625 0.03125-0.011719 0.023437-0.015625 0.046875-0.015625 0.078125v0.1875h-0.10938v-0.20312c0-0.039063-0.007812-0.066406-0.015625-0.078125-0.011719-0.007812-0.027344-0.015625-0.046875-0.015625-0.023438 0-0.039062 0.011719-0.046875 0.03125-0.011719 0.023437-0.015625 0.046875-0.015625 0.078125v0.1875h-0.14062v-0.375h0.14062v0.046875c0.007812-0.019531 0.023438-0.035156 0.046875-0.046875 0.019531-0.007812 0.039063-0.015625 0.0625-0.015625 0.03125 0 0.050781 0.011719 0.0625 0.03125 0.019531 0.011719 0.039063 0.027344 0.0625 0.046875z"/>
  </symbol>
  <symbol id="p" overflow="visible">
   <path d="m0.45312-0.23438v0.23438h-0.14062v-0.17188-0.078125-0.015625c0-0.007813-0.007812-0.015625-0.015625-0.015625-0.011719-0.007812-0.023437-0.015625-0.03125-0.015625-0.023437 0-0.042969 0.011719-0.0625 0.03125-0.011719 0.023437-0.015625 0.046875-0.015625 0.078125v0.1875h-0.14062v-0.53125h0.14062v0.20312c0.007812-0.019531 0.023438-0.035156 0.046875-0.046875 0.019531-0.007812 0.046875-0.015625 0.078125-0.015625 0.039062 0 0.070312 0.015625 0.09375 0.046875 0.03125 0.023438 0.046875 0.058594 0.046875 0.10938z"/>
  </symbol>
  <symbol id="o" overflow="visible">
   <path d="m0.0625-0.51562h0.21875c0.0625 0 0.10938 0.015625 0.14062 0.046875 0.039063 0.03125 0.0625 0.074219 0.0625 0.125 0 0.054688-0.023437 0.09375-0.0625 0.125-0.03125 0.03125-0.078125 0.046875-0.14062 0.046875h-0.078125v0.17188h-0.14062zm0.14062 0.09375v0.15625h0.0625c0.03125 0 0.050781-0.003906 0.0625-0.015625 0.007813-0.019531 0.015625-0.039062 0.015625-0.0625 0-0.019531-0.007812-0.035156-0.015625-0.046875-0.011719-0.019531-0.03125-0.03125-0.0625-0.03125z"/>
  </symbol>
  <symbol id="n" overflow="visible">
   <path d="m0.046875-0.375h0.14062v0.35938c0 0.050781-0.015625 0.09375-0.046875 0.125-0.023437 0.03125-0.058594 0.046875-0.10938 0.046875h-0.046875v-0.09375h0.015625c0.019531 0 0.03125-0.0078125 0.03125-0.015625 0.0078125 0 0.015625-0.023438 0.015625-0.0625zm0-0.15625h0.14062v0.09375h-0.14062z"/>
  </symbol>
  <symbol id="m" overflow="visible">
   <path d="m0.375-0.375v0.10938c-0.023438-0.007813-0.042969-0.019531-0.0625-0.03125-0.011719-0.007813-0.027344-0.015625-0.046875-0.015625-0.03125 0-0.058594 0.015625-0.078125 0.046875-0.023438 0.023437-0.03125 0.046875-0.03125 0.078125s0.007812 0.058594 0.03125 0.078125c0.019531 0.023438 0.046875 0.03125 0.078125 0.03125h0.046875c0.019531-0.0078125 0.039062-0.019531 0.0625-0.03125v0.09375c-0.023438 0.011719-0.042969 0.015625-0.0625 0.015625-0.023438 0.0078125-0.042969 0.015625-0.0625 0.015625-0.074219 0-0.13281-0.015625-0.17188-0.046875-0.03125-0.039062-0.046875-0.09375-0.046875-0.15625s0.015625-0.10938 0.046875-0.14062c0.039063-0.039063 0.097656-0.0625 0.17188-0.0625 0.019531 0 0.039062 0.007813 0.0625 0.015625h0.0625z"/>
  </symbol>
 </defs>
 <g>
  <path d="m503.47 114.17c-2.3242-5.5039-5.6562-10.445-9.8984-14.688-4.2422-4.2422-9.1836-7.5742-14.688-9.8984-5.6992-2.4062-11.746-3.6406-17.988-3.6406h-221.76c-6.2305 0-12.277 1.2188-17.988 3.6406-5.5039 2.3242-10.445 5.6562-14.688 9.8984-4.2422 4.2422-7.5742 9.1836-9.8984 14.688-2.4062 5.6992-3.6406 11.762-3.6406 17.988v295.68c0 6.2305 1.2188 12.277 3.6406 17.988 2.3242 5.5039 5.6562 10.445 9.8984 14.688 4.2422 4.2422 9.1836 7.5742 14.688 9.8984 5.6992 2.4062 11.762 3.6406 17.988 3.6406h221.76c6.2305 0 12.277-1.2188 17.988-3.6406 5.5039-2.3242 10.445-5.6562 14.688-9.8984 4.2422-4.2422 7.5742-9.1836 9.8984-14.688 2.4062-5.6992 3.6406-11.746 3.6406-17.988v-295.68c-0.015625-6.2305-1.2344-12.277-3.6406-17.988zm-14.855 313.67c0 15.289-12.434 27.719-27.719 27.719h-221.76c-15.289 0-27.719-12.434-27.719-27.719v-295.68c0-15.289 12.434-27.719 27.719-27.719h221.76c15.289 0 27.719 12.434 27.719 27.719z"/>
  <path d="m306.53 254.98-30.422 30.422-11.941-11.941c-3.6133-3.6133-9.4648-3.6133-13.062 0-3.5977 3.6133-3.6133 9.4648 0 13.062l18.48 18.48c1.7344 1.7344 4.0898 2.7031 6.5391 2.7031s4.8008-0.98047 6.5391-2.7031l36.961-36.961c3.6133-3.6133 3.6133-9.4648 0-13.062-3.6445-3.5977-9.4961-3.5977-13.094 0z"/>
  <path d="m442.41 270.76h-92.398c-5.1094 0-9.2383 4.1289-9.2383 9.2383s4.1289 9.2383 9.2383 9.2383h92.398c5.1094 0 9.2383-4.1289 9.2383-9.2383s-4.1289-9.2383-9.2383-9.2383z"/>
  <path d="m306.53 347.38-30.422 30.422-11.941-11.941c-3.6133-3.6133-9.4648-3.6133-13.062 0-3.6133 3.6133-3.6133 9.4648 0 13.062l18.48 18.48c1.7344 1.7344 4.0898 2.7031 6.5391 2.7031s4.8008-0.98047 6.5391-2.7031l36.961-36.961c3.6133-3.6133 3.6133-9.4648 0-13.062-3.6445-3.5977-9.4961-3.5977-13.094 0z"/>
  <path d="m442.41 363.16h-92.398c-5.1094 0-9.2383 4.1289-9.2383 9.2383 0 5.1094 4.1289 9.2383 9.2383 9.2383h92.398c5.1094 0 9.2383-4.1289 9.2383-9.2383 0-5.1094-4.1289-9.2383-9.2383-9.2383z"/>
  <path d="m269.55 212.62c1.7344 1.7344 4.0898 2.7031 6.5391 2.7031s4.8008-0.98047 6.5391-2.7031l36.961-36.961c3.6133-3.6133 3.6133-9.4648 0-13.062s-9.4648-3.6133-13.062 0l-30.422 30.422-11.941-11.941c-3.6133-3.6133-9.4648-3.6133-13.062 0-3.6133 3.6133-3.6133 9.4648 0 13.062z"/>
  <path d="m442.41 178.36h-92.398c-5.1094 0-9.2383 4.1289-9.2383 9.2383s4.1289 9.2383 9.2383 9.2383h92.398c5.1094 0 9.2383-4.1289 9.2383-9.2383s-4.1289-9.2383-9.2383-9.2383z"/>
  <use x="70" y="562.101562" xlink:href="#v"/>
  <use x="70.515625" y="562.101562" xlink:href="#c"/>
  <use x="70.859375" y="562.101562" xlink:href="#a"/>
  <use x="71.332031" y="562.101562" xlink:href="#g"/>
  <use x="71.804688" y="562.101562" xlink:href="#b"/>
  <use x="72.140625" y="562.101562" xlink:href="#a"/>
  <use x="72.617188" y="562.101562" xlink:href="#l"/>
  <use x="73.359375" y="562.101562" xlink:href="#k"/>
  <use x="73.859375" y="562.101562" xlink:href="#j"/>
  <use x="74.5625" y="562.101562" xlink:href="#f"/>
  <use x="75.148438" y="562.101562" xlink:href="#a"/>
  <use x="75.621094" y="562.101562" xlink:href="#i"/>
  <use x="76.039062" y="562.101562" xlink:href="#b"/>
  <use x="76.375" y="562.101562" xlink:href="#a"/>
  <use x="76.847656" y="562.101562" xlink:href="#c"/>
  <use x="77.191406" y="562.101562" xlink:href="#a"/>
  <use x="77.667969" y="562.101562" xlink:href="#e"/>
  <use x="78.167969" y="562.101562" xlink:href="#u"/>
  <use x="78.632813" y="562.101562" xlink:href="#d"/>
  <use x="79.355469" y="562.101562" xlink:href="#t"/>
  <use x="79.894531" y="562.101562" xlink:href="#h"/>
  <use x="80.394531" y="562.101562" xlink:href="#i"/>
  <use x="80.808594" y="562.101562" xlink:href="#s"/>
  <use x="81.050781" y="562.101562" xlink:href="#g"/>
  <use x="81.523438" y="562.101562" xlink:href="#e"/>
  <use x="70" y="562.800781" xlink:href="#r"/>
  <use x="70.304688" y="562.800781" xlink:href="#c"/>
  <use x="70.648438" y="562.800781" xlink:href="#d"/>
  <use x="71.128906" y="562.800781" xlink:href="#q"/>
  <use x="72.105469" y="562.800781" xlink:href="#b"/>
  <use x="72.4375" y="562.800781" xlink:href="#p"/>
  <use x="72.9375" y="562.800781" xlink:href="#a"/>
  <use x="73.65625" y="562.800781" xlink:href="#f"/>
  <use x="74.242188" y="562.800781" xlink:href="#d"/>
  <use x="74.722656" y="562.800781" xlink:href="#h"/>
  <use x="75.21875" y="562.800781" xlink:href="#e"/>
  <use x="75.960938" y="562.800781" xlink:href="#o"/>
  <use x="76.476562" y="562.800781" xlink:href="#c"/>
  <use x="76.820312" y="562.800781" xlink:href="#d"/>
  <use x="77.300781" y="562.800781" xlink:href="#n"/>
  <use x="77.542969" y="562.800781" xlink:href="#a"/>
  <use x="78.015625" y="562.800781" xlink:href="#m"/>
  <use x="78.429688" y="562.800781" xlink:href="#b"/>
 </g>
</svg>
